<svg width="24" height="25" viewBox="0 0 24 25" fill="none" xmlns="http://www.w3.org/2000/svg">
<path d="M0 11C0 6.875 3.32812 3.5 7.5 3.5H15V2C15 1.4375 15.3281 0.875 15.8906 0.640625C16.4531 0.40625 17.1094 0.546875 17.5312 0.96875L20.5312 3.96875C21.1406 4.53125 21.1406 5.51562 20.5312 6.07812L17.5312 9.07812C17.1094 9.5 16.4531 9.64062 15.8906 9.40625C15.3281 9.17188 15 8.60938 15 8V6.5H7.5C5.01562 6.5 3 8.51562 3 11C3 11.8438 2.29688 12.5 1.5 12.5C0.65625 12.5 0 11.8438 0 11ZM24 14C24 18.1719 20.625 21.5 16.5 21.5H9V23C9 23.6094 8.625 24.1719 8.0625 24.4062C7.5 24.6406 6.84375 24.5 6.42188 24.0781L3.42188 21.0781C2.8125 20.5156 2.8125 19.5312 3.42188 18.9688L6.42188 15.9688C6.84375 15.5469 7.5 15.4062 8.0625 15.6406C8.625 15.875 9 16.4375 9 17V18.5H16.5C18.9844 18.5 21 16.4844 21 14C21 13.2031 21.6562 12.5 22.5 12.5C23.2969 12.5 24 13.2031 24 14Z" fill="#D5D5D5"/>
</svg>
