<svg width="24" height="25" viewBox="0 0 24 25" fill="none" xmlns="http://www.w3.org/2000/svg">
<path d="M23.2031 8.32812C23.3906 8.75 23.25 9.17188 22.9219 9.5L20.9062 11.3281C20.9531 11.7031 20.9531 12.125 20.9531 12.5C20.9531 12.9219 20.9531 13.3438 20.9062 13.7188L22.9219 15.5469C23.25 15.8281 23.3906 16.2969 23.2031 16.7188C23.0156 17.2812 22.7812 17.7969 22.5 18.3125L22.2656 18.6875C21.9375 19.2031 21.6094 19.7188 21.2344 20.1406C20.9531 20.5156 20.4844 20.6094 20.0625 20.4688L17.4844 19.6719C16.8281 20.1406 16.125 20.5156 15.4219 20.8438L14.8125 23.5156C14.7188 23.9375 14.3906 24.2656 13.9688 24.3594C13.3125 24.4531 12.6562 24.5 11.9531 24.5C11.2969 24.5 10.6406 24.4531 9.98438 24.3594C9.5625 24.2656 9.23438 23.9375 9.14062 23.5156L8.53125 20.8438C7.78125 20.5156 7.125 20.1406 6.46875 19.6719L3.89062 20.4688C3.46875 20.6094 3 20.5156 2.71875 20.1875C2.34375 19.7188 2.01562 19.2031 1.6875 18.6875L1.45312 18.3125C1.17188 17.7969 0.9375 17.2812 0.75 16.7188C0.5625 16.2969 0.703125 15.875 1.03125 15.5469L3.04688 13.7188C3 13.3438 3 12.9219 3 12.5C3 12.125 3 11.7031 3.04688 11.3281L1.03125 9.5C0.703125 9.17188 0.5625 8.75 0.75 8.32812C0.9375 7.76562 1.17188 7.25 1.45312 6.73438L1.6875 6.35938C2.01562 5.84375 2.34375 5.32812 2.71875 4.85938C3 4.53125 3.46875 4.4375 3.89062 4.57812L6.46875 5.375C7.125 4.90625 7.82812 4.48438 8.53125 4.20312L9.14062 1.53125C9.23438 1.10938 9.5625 0.78125 9.98438 0.6875C10.6406 0.59375 11.2969 0.5 12 0.5C12.6562 0.5 13.3125 0.59375 13.9688 0.6875C14.3906 0.734375 14.7188 1.10938 14.8125 1.53125L15.4219 4.20312C16.1719 4.48438 16.8281 4.90625 17.4844 5.375L20.0625 4.57812C20.4844 4.4375 20.9531 4.53125 21.2344 4.85938C21.6094 5.32812 21.9375 5.84375 22.2656 6.35938L22.5 6.73438C22.7812 7.25 23.0156 7.76562 23.25 8.32812H23.2031ZM12 16.25C13.3125 16.25 14.5312 15.5469 15.2344 14.375C15.8906 13.25 15.8906 11.7969 15.2344 10.625C14.5312 9.5 13.3125 8.75 12 8.75C10.6406 8.75 9.42188 9.5 8.71875 10.625C8.0625 11.7969 8.0625 13.25 8.71875 14.375C9.42188 15.5469 10.6406 16.25 12 16.25Z" fill="#D5D5D5"/>
</svg>
