<svg width="434" height="240" viewBox="0 0 434 240" fill="none" xmlns="http://www.w3.org/2000/svg">
<path d="M207.295 230.795C49.3061 225.918 2.18165 177.467 4.98739 110.942C9.70274 -0.858952 352.254 -25.5654 408.792 65.8004C465.33 157.166 404.781 236.892 207.295 230.795Z" fill="#F5F5F5"/>
<path d="M127.833 78.4481C137.13 78.4481 143.031 84.7536 143.031 95.2629V120H129.531V96.7988C129.531 93.3227 127.914 91.14 124.518 91.14C120.719 91.14 118.94 93.8886 118.94 97.9306V120H105.521V96.7988C105.521 93.3227 103.823 91.14 100.428 91.14C96.7094 91.14 94.85 93.8886 94.85 97.9306V120H81.4305V79.5798H94.85V83.3793C97.0327 80.4691 100.59 78.4481 105.763 78.4481C110.533 78.4481 113.928 80.3074 116.111 83.6218C118.617 80.5499 122.255 78.4481 127.833 78.4481Z" fill="black"/>
<path fill-rule="evenodd" clip-rule="evenodd" d="M162.157 104.721C163.773 108.602 167.33 109.652 171.211 109.652C174.121 109.652 176.627 108.682 178.567 106.823L188.268 113.614C184.226 118.707 178.082 121.132 170.887 121.132C156.902 121.132 148.252 111.835 148.252 99.8708C148.252 87.7447 157.145 78.4481 169.756 78.4481C181.882 78.4481 190.612 87.583 190.612 99.7091C190.612 101.407 190.451 103.024 190.047 104.721H162.157ZM161.995 95.4245H177.516C176.304 91.2208 173.151 89.7657 169.917 89.7657C166.037 89.7657 163.127 91.7059 161.995 95.4245Z" fill="black"/>
<path d="M257.976 95.2629C257.976 84.7536 252.074 78.4481 242.778 78.4481C237.2 78.4481 233.562 80.5499 231.056 83.6218C228.873 80.3074 225.478 78.4481 220.708 78.4481C215.535 78.4481 211.978 80.4691 209.795 83.3793V79.5798H196.375V120H209.795V97.9306C209.795 93.8886 211.654 91.14 215.373 91.14C218.768 91.14 220.466 93.3227 220.466 96.7988V120H233.885V97.9306C233.885 93.8886 235.664 91.14 239.463 91.14C242.859 91.14 244.475 93.3227 244.475 96.7988V120H257.976V95.2629Z" fill="black"/>
<path d="M143.031 145.788C143.031 135.279 137.13 128.973 127.833 128.973C122.255 128.973 118.617 131.075 116.111 134.147C113.928 130.833 110.533 128.973 105.764 128.973C100.59 128.973 97.0328 130.994 94.8501 133.905V130.105H81.4306V170.525H94.8501V148.456C94.8501 144.414 96.7095 141.665 100.428 141.665C103.823 141.665 105.521 143.848 105.521 147.324V170.525H118.941V148.456C118.941 144.414 120.719 141.665 124.519 141.665C127.914 141.665 129.531 143.848 129.531 147.324V170.525H143.031V145.788Z" fill="black"/>
<path d="M189.689 144.765C186.499 144.029 184.045 143.463 184.045 141.908C184.045 140.695 185.177 139.968 187.037 139.968C189.3 139.968 190.917 141.18 192.049 143.444L203.366 138.351C200.052 131.722 193.989 128.973 186.713 128.973C178.468 128.973 170.464 133.42 170.464 142.554C170.464 151.834 178.76 153.973 184.591 155.478C187.752 156.293 190.189 156.922 190.189 158.399C190.189 159.854 188.896 160.582 186.552 160.582C183.399 160.582 181.297 159.127 180.246 156.136L168.524 162.037C171.758 168.908 178.144 171.657 186.632 171.657C194.878 171.657 204.094 168.181 204.094 158.076C204.094 148.089 195.619 146.134 189.689 144.765Z" fill="black"/>
<path d="M225.609 144.765C222.419 144.029 219.966 143.463 219.966 141.908C219.966 140.695 221.098 139.968 222.957 139.968C225.22 139.968 226.837 141.18 227.969 143.444L239.287 138.351C235.972 131.722 229.909 128.973 222.634 128.973C214.388 128.973 206.385 133.42 206.385 142.554C206.385 151.834 214.68 153.973 220.512 155.478C223.673 156.293 226.11 156.922 226.11 158.399C226.11 159.854 224.816 160.582 222.472 160.582C219.319 160.582 217.217 159.127 216.166 156.136L204.444 162.037C207.678 168.908 214.064 171.657 222.553 171.657C230.798 171.657 240.014 168.181 240.014 158.076C240.014 148.089 231.539 146.134 225.609 144.765Z" fill="black"/>
<path d="M352.983 146.354C352.983 134.713 346.435 128.973 338.108 128.973C333.096 128.973 329.135 130.913 326.872 134.147V130.105H313.452V170.525H326.872V149.022C326.872 144.171 329.378 141.665 333.5 141.665C336.977 141.665 339.563 143.686 339.563 148.052V170.525H352.983V146.354Z" fill="black"/>
<path d="M245.243 170.525V130.105H258.662V170.525H245.243Z" fill="black"/>
<path d="M150.271 130.105V170.525H163.691V130.105H150.271Z" fill="black"/>
<path fill-rule="evenodd" clip-rule="evenodd" d="M356.45 97.7758C356.45 110.221 346.223 120 334.218 120C321.769 120 311.987 109.777 311.987 97.7758C311.987 85.3303 322.214 75.5517 334.218 75.5517C346.668 75.1072 356.45 85.3303 356.45 97.7758Z" fill="#D5D5D5"/>
<path d="M285.714 120C297.719 120 307.945 110.218 307.945 97.7688C307.945 85.3194 298.164 75.5377 285.714 75.5377C273.709 75.5377 263.483 85.3194 263.483 97.7688C263.483 109.774 273.265 120 285.714 120Z" fill="#FF3F56"/>
<path d="M285.26 171.786C297.265 171.786 307.491 162.004 307.491 149.555C307.491 137.105 297.71 127.323 285.26 127.323C273.255 127.323 263.029 137.105 263.029 149.555C263.029 161.559 272.811 171.786 285.26 171.786Z" fill="#FF3F56"/>
</svg>
